<?xml version="1.0" encoding="UTF-8"?>
<!DOCTYPE svg PUBLIC '-//W3C//DTD SVG 1.0//EN' 'http://www.w3.org/TR/2001/REC-SVG-20010904/DTD/svg10.dtd'>
<svg xmlns:xlink="http://www.w3.org/1999/xlink" xmlns="http://www.w3.org/2000/svg" width="400.000000002976" height="600.000000000025">
<!--Gegenereerd door de SIMaD-toepassing (http://www.dlw.be).-->
<g style="stroke:none;fill-rule:evenodd;" transform="matrix(1,0,0,-1,0,600.000000000025)">
<path d=" M0 555 L1.26760824059602E-11 45.000033772121 A45 45 0 0 1 45.000033772121 1.26760824059602E-11 L354.999966227879 1.26760824059602E-11 A45 45 0 0 1 399.999999999987 45.000033772121 L399.999999999888 554.999899469035 A45 45 0 0 1 355.000033772121 599.999999999987 L45.000033772121 599.999999999987 A45 45 0 0 1 1.26760824059602E-11 554.999966227879 Z" style="fill:rgb(0,0,255);" />
<path d=" M62.86 100 L136.19 100 L136.19 273.33 L230.480119151534 273.330000000067 A106.67 106.67 0 0 1 337.149999999966 379.999914359835 L337.14 380 L337.149999999966 393.330085640165 A106.67 106.67 0 0 1 230.480119151534 499.999999999933 L230.48 500 L62.86 500 Z M136.19 340 L223.810044680429 340.000000000025 A40 40 0 0 1 263.809999999987 379.999967885942 L263.809999999987 393.330032114058 A40 40 0 0 1 223.810044680429 433.329999999975 L136.19 433.33 Z" style="fill:rgb(255,255,255);" />
</g>
</svg>
