<?xml version="1.0" encoding="UTF-8"?>
<!DOCTYPE svg PUBLIC '-//W3C//DTD SVG 1.0//EN' 'http://www.w3.org/TR/2001/REC-SVG-20010904/DTD/svg10.dtd'>
<svg xmlns:xlink="http://www.w3.org/1999/xlink" xmlns="http://www.w3.org/2000/svg" width="400.000000002976" height="600.000000000025">
<!--Gegenereerd door de SIMaD-toepassing (http://www.dlw.be).-->
<g style="stroke:none;fill-rule:evenodd;" transform="matrix(1,0,0,-1,0,600.000000000025)">
<path d=" M0 555 L1.26760824059602E-11 45.000033772121 A45 45 0 0 1 45.000033772121 1.26760824059602E-11 L354.999966227879 1.26760824059602E-11 A45 45 0 0 1 399.999999999987 45.000033772121 L399.999999999888 554.999899469035 A45 45 0 0 1 355.000033772121 599.999999999987 L45.000033772121 599.999999999987 A45 45 0 0 1 1.26760824059602E-11 554.999966227879 Z" style="fill:rgb(0,0,255);" />
<path d=" M97.14 250 L152.14 250 L152.14 380 L222.860089360858 380.00000000005 A80 80 0 0 1 302.859999999974 459.999935771884 L302.859999999974 470.000064228116 A80 80 0 0 1 222.860089360858 549.99999999995 L97.14 550 Z M152.14 430 L217.860033510322 430.000000000019 A30 30 0 0 1 247.85999999999 459.999975914456 L247.85999999999 470.000024085544 A30 30 0 0 1 217.860033510322 499.999999999981 L152.14 500 Z" style="fill:rgb(255,255,255);" />
<path d=" M340.11 109.81 L340.11 104.8 L378.56 104.8 L378.56 90.96 L354.08 90.96 L354.08 83.32 L341.12 83.32 A37.08 37.08 0 0 1 266.96 83.32 L118.28 83.32 A37.08 37.08 0 0 1 44.12 83.32 L20 83.32 L20 93.7 L27.2 93.7 L34.2505971991379 129.796604868971 A3.27 3.27 0 0 0 34.8902184538321 131.192157957474 L34.89 131.2 L40.88 138.81 L45.92 138.81 L58.1871780776183 179.797190910458 A3.27 3.27 0 0 0 61.3200001712168 182.13 L118.64 182.13 L118.64 104.8 L259.04 104.8 L259.04 109.81 L123.32 109.81 L123.32 214 L380 214 L380 109.81 Z M100.64 169.25 L100.64 138.81 L65.36 138.81 L74.46 169.25 Z M60.7322231024739 167.841741865199 A1.96 1.96 0 0 0 62.6100006841691 169.24 L62.61 169.25 L67.98 169.25 L58.88 138.81 L52.04 138.81 Z" style="fill:rgb(255,255,255);" />
<path d=" M114.4 83.34 A33.11 33.11 0 0 1 48.18 83.34 A33.11 33.11 0 0 1 114.4 83.34 Z M92.43 83.42 A11.09 11.09 0 0 1 70.25 83.42 A11.09 11.09 0 0 1 92.43 83.42 Z" style="fill:rgb(255,255,255);" />
<path d=" M337.16 83.36 A33.12 33.12 0 0 1 270.92 83.36 A33.12 33.12 0 0 1 337.16 83.36 Z M315.27 83.33 A11.13 11.13 0 0 1 293.01 83.33 A11.13 11.13 0 0 1 315.27 83.33 Z" style="fill:rgb(255,255,255);" />
</g>
</svg>
