<?xml version="1.0" encoding="UTF-8"?>
<!DOCTYPE svg PUBLIC '-//W3C//DTD SVG 1.0//EN' 'http://www.w3.org/TR/2001/REC-SVG-20010904/DTD/svg10.dtd'>
<svg xmlns:xlink="http://www.w3.org/1999/xlink" xmlns="http://www.w3.org/2000/svg" width="600.000000004297" height="900.000000000043">
<!--Gegenereerd door de SIMaD-toepassing (http://www.dlw.be).-->
<g style="stroke:none;fill-rule:evenodd;" transform="matrix(1,0,0,-1,0,900.000000000043)">
<path d=" M65 0 L534.999951218047 1.83035808731802E-11 A65 65 0 0 1 599.999999999982 65.0000487819526 L599.999999999838 834.999854788606 A65 65 0 0 1 535.000048781953 899.999999999982 L65.0000487819526 899.999999999982 A65 65 0 0 1 1.83035808731802E-11 834.999951218047 L1.83035808731802E-11 65.0000487819526 A65 65 0 0 1 65.0000487819526 1.83035808731802E-11 Z" style="fill:rgb(0,0,255);" />
<path d=" M65 15 L534.999962475421 15.0000000000141 A50 50 0 0 1 584.999999999986 65.0000375245789 L584.999999999875 834.999888298928 A50 50 0 0 1 535.000037524579 884.999999999986 L65.0000375245789 884.999999999986 A50 50 0 0 1 15.0000000000141 834.999962475421 L15.0000000000141 65.0000375245789 A50 50 0 0 1 65.0000375245789 15.0000000000141 Z" style="fill:rgb(255,255,255);" />
<path d=" M65 30 L534.999973732795 30.0000000000099 A35 35 0 0 1 569.99999999999 65.0000262672052 L569.999999999913 834.99992180925 A35 35 0 0 1 535.000026267205 869.99999999999 L65.0000262672052 869.99999999999 A35 35 0 0 1 30.0000000000099 834.999973732795 L30.0000000000099 65.0000262672052 A35 35 0 0 1 65.0000262672052 30.0000000000099 Z" style="fill:rgb(0,0,255);" />
<path d=" M493.13 210 L106.870001570796 210 A22.5 22.5 0 0 0 84.3700000000001 232.500001570796 L84.38 232.5 L84.3700000000001 637.499998429204 A22.5 22.5 0 0 0 106.870001570796 660 L106.88 660 L493.129998429204 660 A22.5 22.5 0 0 0 515.63 637.499998429204 L515.62 232.50000431969 A22.5 22.5 0 0 0 493.120001570796 210 L493.13 210 Z" style="fill:rgb(255,255,255);" />
<path d=" M145.18 475.88 L107.68 475.88 L107.68 555.03 L300 645 L492.32 555.03 L492.32 475.88 L454.82 475.88 L454.82 531.17 L300 603.6 L145.18 531.17 Z" style="fill:rgb(0,0,0);" />
<path d=" M211.45 243.75 L265.08 243.75 L265.08 370.5 L334.020087126836 370.500000000049 A78 78 0 0 1 412.019999999975 448.499937377586 L412.019999999976 458.250061261057 A78 78 0 0 1 334.020088488193 536.24999999995 L211.45 536.25 Z M265.08 419.25 L329.150032672564 419.250000000018 A29.25 29.25 0 0 1 358.399999999991 448.499976516595 L358.399999999991 458.250023483405 A29.25 29.25 0 0 1 329.150032672564 487.499999999982 L265.08 487.5 Z" style="fill:rgb(0,0,0);" />
</g>
</svg>
